<?xml version="1.0" encoding="UTF-8" standalone="no"?>
<!-- Created with Inkscape (http://www.inkscape.org/) -->

<svg
   version="1.1"
   id="svg2"
   width="952.32117"
   height="786.35535"
   viewBox="0 0 952.32117 786.35535"
   xmlns="http://www.w3.org/2000/svg"
   xmlns:svg="http://www.w3.org/2000/svg">
  <defs
     id="defs6" />
  <g
     id="g8"
     transform="translate(2278.0315,-760.36763)">
    <g
       id="g1057"
       transform="translate(-2310.042,677.08914)">
      <path
         id="path2173"
         style="fill:#fbd50e"
         d="m 481.4912,141.13742 c -1.2516,0.44637 -1.5628,1.93703 -1.9895,3.05116 -2.4504,7.50871 -3.9878,15.27081 -6.0613,22.88516 -3.0981,11.77614 -6.5426,23.42968 -10.6601,34.91014 -1.3085,3.6283 -2.6173,7.04966 -4.0899,10.60276 -0.7366,1.76737 -1.574,3.69643 -2.4004,5.50391 -0.2739,0.58743 -0.66,1.427 -0.9556,2.02793 -0.6205,1.29331 -1.2198,2.50237 -1.9162,3.81065 -3.071,5.71745 -6.7302,11.20929 -11.4366,15.7172 -4.0045,3.85177 -9.144,6.75719 -14.7578,7.22402 -6.5096,0.59366 -12.9007,-1.60726 -18.6468,-4.4766 -7.743,-3.96398 -14.6527,-9.35182 -21.2051,-15.02769 -7.3568,-6.42987 -14.2645,-13.51419 -20.6678,-20.80286 -6.2714,-7.13761 -12.0098,-14.71675 -17.957,-22.12109 -0.4599,9.15593 -0.7565,18.32107 -1.3642,27.46888 -0.2839,4.01122 -0.6625,8.18475 -1.1242,12.17321 -1.5303,13.02013 -3.9526,26.03348 -8.5699,38.34183 -3.0344,8.10606 -7.2527,15.86563 -13.1509,22.2541 -5.2129,5.75438 -11.8973,10.15486 -19.2645,12.61679 -8.7481,2.97728 -18.0895,3.68751 -27.2751,3.5417 -4.1097,-0.0837 -8.3654,-0.45871 -12.3391,-0.99807 -2.9031,-0.40412 -5.7776,-0.91021 -8.5902,-1.4887 -10.3187,-2.11855 -20.365,-5.3403 -30.3364,-8.69452 -2.6716,-0.81973 -5.3193,-1.78722 -8.0734,-2.28668 -0.615,-0.0885 -1.212,0.17018 -1.8184,0.24724 -0.3775,0.85799 -0.8243,1.80662 -0.3812,2.73312 1.4776,3.48636 3.5322,6.69133 5.4037,9.97389 5.8694,10.19252 11.1878,20.80573 14.5613,32.10846 1.8643,6.5091 3.1974,13.3705 2.2444,20.1494 -0.5845,4.4073 -2.7023,8.4947 -5.6385,11.7937 -5.2652,5.9786 -12.4483,9.8512 -19.7682,12.7438 -11.6065,4.6467 -24.0459,6.5536 -36.3334,8.4473 -4.5595,0.7248 -9.1348,1.3682 -13.6721,2.2203 -1.3912,0.2824 -2.4705,1.7668 -1.9722,3.1664 0.6096,1.6394 2.2126,2.5996 3.4953,3.6765 1.2984,1.0406 2.7296,1.9386 3.9842,3.0159 12.5029,16.5431 24.8988,33.1813 36.5287,50.3544 6.7519,10.0543 13.3499,20.2813 18.7821,31.1574 3.037,6.2347 5.8344,12.7388 6.7454,19.6682 0.6218,4.6371 -0.0749,9.5104 -2.4315,13.5945 -3.0307,5.3324 -7.727,9.416 -12.2085,13.4948 -7.139,6.3135 -14.277,12.6811 -20.5043,19.9192 -10.4753,11.9882 -18.5185,25.9613 -24.457,40.6972 -4.9114,12.1194 -8.4999,24.7397 -11.259,37.5113 -0.004,1.2077 1.0141,2.2179 2.1992,2.3184 2.002,0.2007 3.8438,-0.8271 5.799,-1.0678 7.9252,-1.4115 15.9456,-2.2237 23.9647,-2.8795 2.1564,-0.1557 4.202,-0.2928 6.3941,-0.3608 1.6372,-0.0531 3.2758,-0.0369 4.9125,0.0268 0.6601,0.037 1.6431,0.0798 2.4252,0.1448 3.8132,0.2815 7.6042,0.8705 11.3209,1.7693 0.4432,0.1122 1.2455,0.3103 1.8224,0.4763 6.6203,1.8532 13.156,4.7012 18.2474,9.4241 2.2286,2.1023 4.0075,4.8212 5.5786,7.3086 1.258,2.0282 2.263,4.1525 3.1921,6.288 1.6429,3.466 1.5981,7.3756 1.6413,11.124 0.0607,6.5609 -0.0425,13.2769 -0.9095,19.7052 -1.4834,11.7556 -5.2145,23.0619 -9.1066,34.2029 -1.0584,3.2412 -2.2548,6.4518 -3.0282,9.7756 -0.0865,0.5663 0.0645,1.1425 0.0781,1.7129 0.7979,0.3796 1.6037,0.996 2.5274,0.6679 2.01,-0.6351 3.4652,-2.2365 5.2327,-3.3047 6.7633,-4.4474 13.8044,-8.5007 20.7918,-12.5199 5.3894,-3.0461 10.6777,-6.0122 16.2338,-8.7777 5.2759,-2.6103 10.6512,-5.0281 16.1577,-7.1125 1.3999,-0.5265 3.019,-1.1114 4.5212,-1.6133 6.5033,-2.1586 13.2327,-3.8349 20.1018,-4.1543 0.3557,-0.003 1.1315,-0.0428 1.6524,-0.0359 6.3141,-0.0832 12.8344,1.402 17.9571,5.2359 4.3328,3.1817 7.4784,7.7219 9.7167,12.5578 0.3079,0.6605 0.7283,1.6093 1.0475,2.3947 1.7106,4.1669 2.8054,8.5659 3.4798,13.0135 0.0662,0.4981 0.1704,1.148 0.2383,1.7043 0.416,3.1574 0.6376,6.4202 0.793,9.6649 0.0218,0.5632 0.0493,1.4662 0.0733,2.1597 0.2779,10.3109 -0.1168,20.5352 -0.8775,30.8182 -0.3714,4.2628 -0.6443,8.5612 -1.5735,12.747 -0.4058,1.264 -0.7361,2.8457 0.2239,3.935 0.5331,0.4599 1.2729,0.6989 1.9434,0.6825 1.5468,-0.7528 2.4681,-2.2896 3.6169,-3.5059 3.9906,-4.701 7.72,-9.6226 11.893,-14.1686 5.6899,-6.334 11.6738,-12.5302 17.679,-18.4804 5.2879,-5.1665 10.5835,-10.3521 16.3477,-14.9922 7.0127,-5.2919 14.5823,-10.0701 22.9806,-12.8168 4.6148,-1.4915 9.5083,-2.2717 14.3592,-1.857 0.4589,0.0468 0.9375,0.0831 1.5286,0.1688 4.4822,0.5716 8.9803,2.3694 12.6648,4.6866 7.4918,4.7208 13.2365,11.6924 18.101,18.9862 8.0038,12.2242 13.8276,25.6966 19.0316,39.3793 3.1917,8.4023 5.9375,16.9679 8.9162,25.4431 0.1859,0.7105 0.9281,0.8958 1.4726,1.2676 0.8141,-0.0881 1.6695,-0.2797 2.1543,-1.0078 1.285,-1.879 1.9637,-4.096 2.809,-6.1935 2.1781,-5.9408 4.0278,-11.9968 6.2353,-17.9281 5.1229,-13.989 10.9145,-27.8168 18.6074,-40.6094 0.7493,-1.2347 1.404,-2.2694 2.1863,-3.4838 4.7826,-7.3027 10.3826,-14.2444 17.4907,-19.4066 3.3968,-2.4842 7.4652,-4.0379 11.6714,-4.3283 4.7074,-0.3359 9.4668,0.0535 14.0796,1.0356 6.0523,1.3182 11.6696,4.107 16.8852,7.3848 1.0135,0.6352 2.2229,1.424 3.2933,2.1492 3.8774,2.6639 7.7349,5.3861 11.1914,8.5908 8.6046,7.7996 16.8086,16.0288 24.9266,24.3299 5.524,5.6753 10.9789,11.4198 16.2664,17.3168 3.9358,4.3379 7.5941,9.1327 11.52,13.5652 0.9662,1.0103 1.791,2.2266 2.9937,2.966 0.751,0.4784 1.6809,0.0534 2.5176,0.0997 0.3267,-1.1071 0.5559,-2.2388 0.4001,-3.3969 -0.4122,-6.8053 -1.3294,-13.6597 -1.8415,-20.3981 -0.4689,-6.1316 -0.7374,-12.1498 -0.6822,-18.2905 0.0185,-2.4162 0.0922,-4.6931 0.2203,-7.127 0.151,-2.698 0.3804,-5.3914 0.7001,-8.0746 0.0955,-0.7362 0.2227,-1.7803 0.3558,-2.6312 1.3207,-8.9074 3.8018,-17.8698 8.9006,-25.3992 2.7765,-4.122 6.715,-7.5316 11.4187,-9.2421 4.8378,-1.7967 10.0786,-2.0863 15.1902,-1.8818 0.4018,0.0297 1.195,0.0603 1.7463,0.1008 4.6144,0.3084 9.1814,1.1209 13.6756,2.1941 0.7772,0.1912 1.8456,0.4577 2.7292,0.698 6.2467,1.6706 12.4024,3.8463 18.3552,6.2021 6.8304,2.709 13.4673,5.6864 20.114,8.8477 7.5332,3.6041 15.0747,7.4343 22.5998,11.1485 1.1755,0.4852 2.2443,1.3406 3.517,1.5216 0.5871,0.0619 1.233,-0.2006 1.6334,-0.5975 0.3574,-0.4592 0.6253,-0.9486 0.5712,-1.5471 -0.2165,-1.5678 -1.3053,-2.8402 -2.0328,-4.2066 -4.1527,-6.7881 -8.475,-13.4796 -12.2368,-20.4983 -4.0879,-7.5713 -8.0348,-15.2488 -11.1491,-23.2798 -0.972,-2.5362 -1.6205,-5.1827 -2.0972,-7.8531 -0.0705,-0.4513 -0.1857,-1.0592 -0.2586,-1.5814 -0.3541,-2.2898 -0.5775,-4.5194 -0.7256,-6.7832 -0.2503,-4.0978 -0.2539,-8.4099 0.2976,-12.5702 0.7015,-6.0468 3.9028,-11.6414 8.439,-15.6434 5.962,-5.3344 13.6472,-8.3071 21.3715,-10.0032 3.5292,-0.77 7.1381,-1.1009 10.7413,-1.274 0.8766,-0.0382 2.0407,-0.0729 3.0273,-0.0918 6.7348,-0.094 13.4701,0.3574 20.1524,1.1816 5.7827,0.7248 11.7164,1.7739 17.448,3.181 8.0903,2.0121 16.1234,4.1005 24.0972,6.5813 2.0588,0.538 4.1248,1.2855 6.2738,1.2759 0.668,-0.0742 1.2666,-0.472 1.6602,-0.9858 0.1379,-0.579 0.5031,-1.1608 0.1341,-1.7301 -0.543,-1.3436 -1.711,-2.3205 -2.626,-3.4153 -1.5325,-1.7172 -3.2297,-3.2884 -4.7606,-4.9999 -5.0056,-6.7357 -9.9168,-13.4689 -14.6947,-20.3354 -1.5293,-2.1731 -3.0393,-4.4162 -4.5203,-6.5717 -8.7721,-13.0624 -17.162,-26.4784 -23.5382,-40.8982 -3.325,-7.552 -6.0715,-15.6049 -7.5048,-23.6233 -0.232,-1.3299 -0.4277,-2.5434 -0.6008,-3.9245 -0.1766,-1.4203 -0.3068,-2.6877 -0.4108,-4.1449 -0.7736,-10.3726 0.9869,-20.8174 4.3851,-30.6116 4.3577,-12.6033 10.8827,-24.3109 17.6941,-35.7266 9.2949,-15.4059 19.3156,-30.356 29.095,-45.4538 0.9317,-1.3596 1.7449,-2.8245 2.7508,-4.1183 9.6586,-8.0571 19.6589,-15.6905 29.6949,-23.2682 2.651,-2.0122 5.3016,-4.0248 7.9523,-6.0372 -10.5646,0.8451 -21.1271,1.8293 -31.7293,2.0442 -8.9422,0.2264 -17.8947,0.085 -26.8234,-0.4622 -1.9483,-0.1347 -4.0999,-0.2772 -6.1226,-0.4568 -4.0236,-0.3406 -8.249,-0.799 -12.3363,-1.3712 -3.6725,-0.4987 -7.523,-1.1513 -11.0372,-1.84 -7.0715,-1.4248 -14.0937,-3.2276 -20.8067,-5.8965 -1.2156,-0.4826 -2.6322,-1.0937 -3.8985,-1.6924 -4.37,-2.156 -8.7308,-4.5 -12.3836,-7.7664 -3.1938,-2.8838 -5.4902,-6.6471 -7.1237,-10.5981 -1.2889,-3.6588 -1.1754,-7.6027 -1.3909,-11.4252 -0.0684,-2.0352 -0.0275,-4.0966 0.0838,-6.0452 0.0732,-1.2165 0.1699,-2.3699 0.311,-3.6399 0.1101,-1.0743 0.2681,-2.1738 0.4117,-3.1843 1.5774,-10.38131 5.012,-20.35422 8.6036,-30.18152 0.8488,-2.58592 1.8313,-5.16535 2.2125,-7.87127 0.126,-0.86474 -0.2216,-1.77595 -0.8827,-2.31933 -0.5872,-0.22276 -1.1698,-0.52128 -1.7908,-0.23122 -3.3645,1.44693 -6.7184,2.93943 -10.0711,4.29975 -5.0048,2.05149 -10.073,3.9825 -15.1471,5.70245 -6.5511,2.22218 -13.2136,4.14111 -19.9967,5.51517 -0.9242,0.17531 -2.1219,0.4138 -3.1555,0.58364 -8.1278,1.36691 -16.5346,1.96735 -24.6708,0.34064 -4.5617,-0.93059 -9.015,-2.83625 -12.4706,-6.01217 -0.2659,-0.25188 -0.817,-0.75967 -1.1625,-1.14592 -4.4777,-4.72282 -6.8284,-11.00252 -8.3585,-17.22289 -0.7356,-3.0955 -1.1784,-6.40806 -1.4477,-9.47689 -0.5695,-6.75715 -0.4597,-13.55077 -0.1277,-20.27663 0.5897,-11.65378 2.0085,-23.2416 3.3484,-34.82689 -4.7443,4.82441 -9.5056,9.76825 -14.2461,14.51172 -10.8208,10.64586 -22.6787,20.39303 -35.9826,27.78572 -2.3439,1.29468 -4.7788,2.52369 -7.1428,3.59553 -5.6104,2.59378 -11.5369,4.92631 -17.7977,5.07789 -3.3927,0.0546 -6.838,-0.0161 -10.152,-0.81354 -3.1293,-0.88322 -5.9406,-2.69343 -8.365,-4.82662 -5.1659,-4.73186 -8.3239,-11.20196 -10.6135,-17.72139 -0.4739,-1.38482 -0.8686,-2.64211 -1.2838,-4.08129 -0.3436,-1.17766 -0.632,-2.34206 -0.9067,-3.41278 -1.5914,-6.52432 -2.4377,-13.19648 -3.6032,-19.80324 0.0153,-1.11522 -0.3881,-0.3638 -0.7463,0.18573 -2.2646,3.17038 -4.339,6.4818 -6.7635,9.53439 -3.763,4.47252 -8.0536,8.53079 -12.8379,11.89625 -2.162,1.58326 -4.6798,2.62659 -7.314,3.0994 -4.25,0.78863 -8.7128,0.87673 -12.91,-0.25385 -2.6683,-0.77725 -4.9178,-2.52274 -7.0652,-4.22367 -6.026,-5.09284 -10.6451,-11.59885 -14.8576,-18.2104 -6.283,-10.07301 -11.5567,-20.73849 -16.4592,-31.53865 -4.2668,-9.75999 -8.2055,-19.66561 -11.8141,-29.68731 -0.7076,-2.11088 -1.5412,-4.1982 -1.9943,-6.38146 0.0213,-1.55468 -0.796,-3.47178 -2.5332,-3.64258 -0.3643,-0.0916 -0.6387,-0.0593 -0.9707,0.12109 z" />
      <path
         id="path2171"
         style="fill:#fbd50e"
         d="m 927.5596,513.00656 c -3.195,0.1809 -5.8833,3.418 -5.5039,6.5918 0.0517,1.3823 1.4599,2.6095 2.832,2.1484 1.1356,-0.2453 1.5153,-1.5473 2.5781,-1.9433 1.4936,-0.554 3.0472,-1.543 3.418,-3.2051 0.4536,-1.5988 -0.7722,-3.3205 -2.4023,-3.5254 -0.2994,-0.0614 -0.6167,-0.0776 -0.9219,-0.0664 z" />
      <path
         id="path2169"
         style="fill:#fbd50e"
         d="m 145.71,488.12566 c -2.8221,1.0726 -5.4836,2.5351 -8.2115,3.8259 -7.9408,3.9417 -15.8318,7.9849 -23.7495,11.9749 10.349,3.776 20.6349,7.729 31.0633,11.2813 1.1856,0.3212 2.434,1.0315 3.6653,0.5767 1.4817,-0.6902 1.7178,-2.4966 1.6838,-3.9537 -0.0151,-3.1511 -0.5538,-6.2685 -0.7424,-9.4101 -0.1297,-1.7157 -0.2538,-3.6736 -0.3175,-5.3753 -0.1326,-2.5542 0.0824,-5.2181 -0.829,-7.654 -0.3327,-0.6686 -0.9017,-1.2404 -1.673,-1.3199 -0.3111,-0.165 -0.5797,-0.0334 -0.8895,0.0542 z" />
      <path
         style="fill:#d81e1d"
         d="M 161.59925,598.68659 C 161.06321,594.23632 159.35968,535.073 158.49856,491 158.21379,476.425 157.7188,454.13316 157.3986,441.46258 l -0.5822,-23.03743 5.3418,-1.36646 c 2.93799,-0.75156 10.80463,-3.01367 17.48143,-5.0269 l 12.13962,-3.66043 0.66441,30.56432 c 0.36543,16.81038 0.90602,31.82538 1.20133,33.36668 l 0.53692,2.80236 2.71593,-4.30236 c 3.41243,-5.40569 18.82716,-32.7875 31.58156,-56.0996 5.67851,-10.37901 10.21304,-17.59464 10.87887,-17.31116 0.62795,0.26734 7.66673,2.59067 15.64173,5.16295 7.975,2.57227 14.80023,4.85331 15.16717,5.06898 0.36694,0.21566 -7.81533,14.53653 -18.18284,31.82414 -10.3675,17.28761 -21.4429,36.3154 -24.61201,42.28397 l -5.76202,10.85196 6.02079,7.9582 c 3.31143,4.37701 14.0456,18.53298 23.85372,31.45772 9.80811,12.92474 18.00992,24.17634 18.22625,25.00357 0.23101,0.88338 -0.90779,2.27262 -2.75966,3.36655 -1.73414,1.02438 -8.31238,6.76027 -14.61831,12.74643 -6.30594,5.98616 -11.99808,10.87079 -12.64922,10.85473 -1.00321,-0.0247 -15.5599,-21.28178 -38.68387,-56.4898 -3.025,-4.6058 -5.75179,-8.39821 -6.05952,-8.42759 -0.30774,-0.0294 -0.21712,3.20909 0.20139,7.19659 0.79053,7.53223 3.85813,57.11244 3.85813,62.35731 0,3.20983 0.54553,2.99291 -32.69824,13.00187 l -4.19823,1.264 z M 839,590.57198 c -9.15182,-2.86796 -13.59806,-4.73715 -13.80446,-5.80335 -0.32031,-1.65458 6.4248,-51.20929 9.9475,-73.08195 1.13501,-7.04733 1.82532,-13.05165 1.53404,-13.34293 -0.29128,-0.29129 -1.30742,0.97471 -2.25808,2.81332 -0.95066,1.83861 -6.2257,10.31793 -11.7223,18.84293 -5.4966,8.525 -12.01365,18.65 -14.48232,22.5 -15.61972,24.35962 -21.53371,32.49931 -23.59496,32.47477 -2.0211,-0.024 -28.53768,-6.55238 -29.14723,-7.17598 -0.16063,-0.16433 0.98322,-8.62379 2.5419,-18.79879 1.55867,-10.175 6.23863,-40.775 10.39991,-68 4.16128,-27.225 8.83897,-57.825 10.39486,-68 1.85583,-12.13655 3.2233,-18.41796 3.97554,-18.26149 0.63066,0.13118 8.78947,2.15618 18.1307,4.5 l 16.98404,4.26149 -0.58025,4 c -0.31914,2.2 -3.85058,23.8 -7.84763,48 -3.99706,24.2 -7.14837,44.12738 -7.00292,44.28306 0.14544,0.15568 2.19604,-2.99432 4.55688,-7 2.36084,-4.00568 10.44412,-17.18306 17.96285,-29.28306 7.51873,-12.1 15.79931,-25.6 18.40127,-30 7.87486,-13.3166 5.7372,-12.36998 19.3499,-8.56868 12.9011,3.60259 15.59883,4.71265 14.75826,6.07273 -0.5029,0.8137 -2.52014,13.42392 -7.03797,43.99595 -0.85341,5.775 -2.68336,17.41007 -4.06655,25.85571 -1.38319,8.44564 -2.37496,15.48047 -2.20394,15.63295 0.17103,0.15248 5.46104,-8.33259 11.75557,-18.85571 26.37803,-44.09843 40.32843,-65.74209 41.9694,-65.1144 C 931.18655,437.59541 949,445.61351 949,446.51082 c 0,0.6389 -2.99161,5.84783 -6.64803,11.57541 -3.65642,5.72757 -10.78865,16.93877 -15.84941,24.91377 -5.06075,7.975 -14.29352,22.375 -20.51726,32 -10.93368,16.90892 -33.36474,51.72357 -45.56439,70.71928 -3.2565,5.0706 -6.37091,9.18868 -6.92091,9.15128 -0.55,-0.0374 -7.075,-1.97176 -14.5,-4.29858 z M 210.19495,576.5 c 0.0204,-1.65 0.2445,-2.20394 0.49804,-1.23097 0.25354,0.97297 0.23687,2.32297 -0.0371,3 -0.27393,0.67703 -0.48137,-0.11903 -0.46099,-1.76903 z M 275.5,566.25601 c -3.3,-0.2012 -6.34172,-0.70534 -6.75938,-1.1203 -0.41766,-0.41496 0.59484,-2.2713 2.25,-4.1252 1.65516,-1.8539 3.00938,-3.73891 3.00938,-4.18891 0,-0.45001 -1.89575,-4.34041 -4.21278,-8.64535 l -4.21279,-7.82716 3.28399,-14.42454 c 1.80619,-7.9335 4.37395,-19.37455 5.70613,-25.42455 2.30334,-10.46045 4.91144,-21.97048 15.06852,-66.5 2.44635,-10.725 5.34177,-23.77079 6.43428,-28.99064 1.09251,-5.21986 2.91178,-13.43236 4.04283,-18.25 1.95051,-8.30811 2.19383,-8.7594 4.72314,-8.76015 1.46667,-4.3e-4 12.0889,-1.57543 23.60495,-3.5 C 339.95431,372.57465 350.13218,371 351.05575,371 c 1.19522,0 1.96962,1.36911 2.68671,4.75 4.69559,22.13833 24.94232,123.93281 27.79602,139.75 1.98459,11 3.68781,22.62363 3.78493,25.83028 l 0.17659,5.83028 -14.5,4.39153 c -7.975,2.41534 -15.65529,4.64692 -17.06731,4.95905 -2.55784,0.56543 -2.57745,0.51846 -5.31409,-12.72181 -3.5984,-17.40963 -3.48013,-17.05657 -5.45894,-16.29646 -0.91281,0.35063 -9.81217,1.80076 -19.77635,3.22251 l -18.11669,2.585 -1.08248,6.59981 c -0.59536,3.6299 -1.8491,11.21231 -2.78608,16.84981 l -1.7036,10.25 -9.09723,-0.18908 C 285.59375,566.70692 278.8,566.45721 275.5,566.25601 Z m 51.1907,-66.37752 c 8.14512,-1.71684 14.91508,-3.21012 15.04438,-3.31841 0.12929,-0.1083 -2.00202,-12.46829 -4.73624,-27.46665 -2.73422,-14.99836 -5.76173,-32.85507 -6.72781,-39.68159 C 329.30495,422.58533 328.24934,417 327.92523,417 c -1.08577,0 -4.44523,16.13256 -14.73306,70.75 -1.57988,8.3875 -2.52112,15.25 -2.09164,15.25 0.42948,0 7.44506,-1.40468 15.59017,-3.12151 z M 392,558.7431 c 0,-0.74591 0.68225,-11.68076 1.51612,-24.29965 0.83387,-12.6189 2.40032,-36.89345 3.481,-53.94345 1.08069,-17.05 2.20864,-33.7 2.50656,-37 C 400.12371,436.63221 404,371.19609 404,367.59718 c 0,-2.13187 0.85415,-2.60879 8.25,-4.60646 16.66894,-4.50239 28.59838,-6.18548 44.75,-6.31366 11.59908,-0.092 17.18241,0.3032 22.18494,1.57049 19.18489,4.8601 33.26675,16.79956 40.39867,34.25245 2.67912,6.55621 2.86011,7.88758 2.85489,21 -0.005,12.69858 -0.26903,14.79015 -2.83954,22.5 -3.92865,11.78338 -7.53363,18.55706 -14.45529,27.16118 -8.80124,10.94058 -21.22187,19.90402 -34.42251,24.84127 C 462.05538,491.24358 449.99433,494 444.47813,494 h -5.20194 l -0.59924,6.25 c -0.32958,3.4375 -1.09028,15.475 -1.69045,26.75 -1.29566,24.34099 -1.78987,29 -3.07621,29 -0.83517,0 -8.5638,0.75282 -36.16029,3.52227 -4.45715,0.4473 -5.75,0.27211 -5.75,-0.77917 z m 60.38616,-101.70393 c 13.39374,-4.60813 22.50063,-12.18163 27.32846,-22.72699 5.03138,-10.99 3.87897,-25.5778 -2.49135,-31.53654 -5.20667,-4.87026 -9.07066,-6.14747 -19.92619,-6.58643 -10.06787,-0.4071 -10.20923,-0.3813 -10.67949,1.94911 -0.54692,2.71026 -3.64368,51.45928 -3.62799,57.11168 0.0124,4.48531 1.00872,4.67501 9.39656,1.78917 z m 211.10078,101.16206 c -11.89914,-4.11462 -20.38897,-11.77722 -27.01113,-24.37921 -10.96705,-20.87035 -11.21548,-53.23865 -0.65544,-85.39757 7.31974,-22.29109 17.42992,-39.52947 31.03978,-52.92445 13.54306,-13.32922 25.51918,-19.12882 41.7535,-20.2197 13.81345,-0.9282 25.70334,3.3772 35.23359,12.75832 8.48461,8.35182 12.7654,16.28116 16.98497,31.46138 2.55972,9.2088 2.20514,38.73759 -0.61971,51.60813 -10.57638,48.18783 -34.21826,78.58308 -67.91469,87.3147 -8.17632,2.1187 -22.35839,2.00962 -28.81087,-0.2216 z m 31.36313,-41.2191 c 10.22591,-4.64025 21.39202,-20.67628 27.49196,-39.48213 3.87384,-11.94287 4.74888,-16.92913 4.74888,-27.06059 0,-16.07722 -4.15875,-27.20533 -11.39475,-30.49044 -5.32956,-2.41961 -8.42286,-2.42463 -14.74093,-0.024 -13.87455,5.27192 -26.99834,23.52728 -33.12332,46.07499 -1.87387,6.89823 -2.31114,11.04399 -2.32045,22 -0.0102,11.96844 0.24813,14.0631 2.27673,18.46346 2.66532,5.78151 4.57327,8.11963 8.71181,10.67598 4.04598,2.49918 12.65856,2.42535 18.35007,-0.15731 z M 583,545.65088 c 0,-4.59202 -0.28585,-11.7307 -0.63522,-15.86373 l -0.63521,-7.51461 -20.56396,-0.72413 c -17.7766,-0.62597 -20.71401,-0.51891 -21.67102,0.78988 -0.60889,0.8327 -3.08723,7.62224 -5.50743,15.08786 L 529.5868,551 h -19.40181 -19.40181 l 0.57804,-2.30307 c 1.38585,-5.52167 38.91062,-97.2832 50.58437,-123.69693 2.3451,-5.30617 8.79097,-20.85819 20.55432,-49.59165 l 1.26571,-3.09164 24.34809,-0.59412 c 13.39146,-0.32676 24.48525,-0.45696 24.65288,-0.28933 0.29831,0.29831 2.72353,56.32013 5.71726,132.06674 0.82603,20.9 1.61758,40.5339 1.75901,43.63089 l 0.25714,5.63089 -6.5,0.612 c -3.575,0.3366 -12.0125,0.6152 -18.75,0.61911 L 583,554 Z M 582.96228,483.25 c -0.0687,-14.12396 -2.70245,-69.32351 -3.33791,-69.95897 -0.34341,-0.3434 -0.62437,0.35512 -0.62437,1.55227 0,1.19715 -5.4,18.42345 -12,38.28068 -6.6,19.85723 -12,36.50274 -12,36.99003 0,0.4873 6.3,0.88599 14,0.88599 h 14 l -0.0377,-7.75 z M 569,483.94098 c 0,-0.58246 0.45,-0.7809 1,-0.44098 0.55,0.33992 1,0.81648 1,1.05902 0,0.24254 -0.45,0.44098 -1,0.44098 -0.55,0 -1,-0.47656 -1,-1.05902 z M 146.27236,430 c 0,-2.475 0.19502,-3.4875 0.43337,-2.25 0.23836,1.2375 0.23836,3.2625 0,4.5 -0.23835,1.2375 -0.43337,0.225 -0.43337,-2.25 z m 57.80659,1.41667 c 0.048,-1.16495 0.28494,-1.4019 0.60416,-0.60417 0.28887,0.72187 0.25335,1.58438 -0.0789,1.91667 -0.3323,0.33229 -0.56864,-0.25834 -0.52522,-1.3125 z m 421,-34 c 0.048,-1.16495 0.28494,-1.4019 0.60416,-0.60417 0.28887,0.72187 0.25335,1.58438 -0.0789,1.91667 -0.33229,0.33229 -0.56864,-0.25834 -0.52522,-1.3125 z"
         id="path1061" />
      <path
         style="fill:#050604"
         d="m 499.50434,851.76471 c -18.0961,-68.86453 -36.79152,-110.5042 -53.08587,-118.23637 -11.6011,-5.50509 -28.44099,3.36156 -51.48886,27.11026 -14.41376,14.85204 -25.21473,27.83369 -53.36416,64.13821 -6.51484,8.40224 -11.97157,15.1504 -12.12606,14.99591 -0.15449,-0.15448 0.81105,-6.80405 2.14563,-14.7768 6.71284,-40.10228 8.79259,-58.79751 8.84348,-79.49592 0.0409,-16.61596 -0.26009,-21.01521 -1.77863,-26 C 332.07471,697.91631 316.40013,697.53049 277,717.98256 263.40869,725.03762 241.8963,739.52308 214.91459,759.78802 203.04261,768.70461 193.09295,776 192.80424,776 c -0.28872,0 3.19748,-7.3125 7.74711,-16.25 22.10464,-43.42343 33.0271,-76.52027 32.2871,-97.83528 -0.31159,-8.97523 -0.58003,-10.09267 -3.38285,-14.08178 -7.82271,-11.13364 -25.58671,-14.148 -54.46793,-9.2426 -12.05132,2.04689 -40.77208,9.25865 -56.98767,14.30957 -6.875,2.14147 -12.6778,3.72474 -12.8951,3.51839 -0.21731,-0.20634 9.45769,-10.52626 21.5,-22.93314 12.0423,-12.40688 22.60712,-23.55408 23.47737,-24.77156 1.40303,-1.96283 1.48712,-5.44225 0.74233,-30.7136 -0.46198,-15.675 -1.174,-32.97464 -1.58228,-38.44365 L 148.5,529.6127 l -6,-1.82103 c -7.83445,-2.3778 -52.613015,-13.50883 -61.833727,-15.3706 -3.94145,-0.79582 -9.750924,-1.93871 -12.909943,-2.53975 -3.159018,-0.60103 -5.539066,-1.42384 -5.288995,-1.82847 0.25007,-0.40462 4.634722,-2.442 9.743669,-4.52752 32.926106,-13.44069 72.550166,-30.95316 74.541996,-32.945 0.21551,-0.21551 0.27401,-9.99674 0.13,-21.73608 -0.14401,-11.73934 -0.2891,-24.67985 -0.32242,-28.75668 l -0.0606,-7.41244 4.5,-1.48362 c 9.13193,-3.01074 9.14341,-3.33038 0.35327,-9.84268 -8.15587,-6.04239 -24.22708,-16.77789 -36.02626,-24.06537 l -6.82701,-4.21654 15.09479,-0.0335 c 30.61753,-0.0679 61.56828,-3.28317 77.31977,-8.03233 8.69545,-2.62173 16.7134,-7.34102 19.07785,-11.22904 7.92155,-13.02596 -0.29734,-31.4956 -41.17186,-92.52209 -3.77591,-5.6375 -6.61738,-10.25 -6.3144,-10.25 0.30299,0 3.12555,1.29812 6.27237,2.8847 19.30406,9.73287 44.76853,20.1098 62.65299,25.53148 24.29533,7.36514 48.15621,8.72716 59.56849,3.40027 17.97763,-8.39139 27.23503,-28.64203 31.06687,-67.95898 1.17503,-12.05654 0.66764,-60.84802 -0.73166,-70.35747 -0.58662,-3.98659 -0.56104,-3.96648 7.6301,6 43.34104,52.73474 61.09203,70.85484 76.53469,78.12616 6.10216,2.87327 9.98794,2.98344 14.21976,0.40319 7.2436,-4.41662 13.70049,-16.739 21.91999,-41.8323 5.74623,-17.54267 17.1726,-62.04744 22.38739,-87.19705 1.76767,-8.525 3.50001,-16.035551 3.84964,-16.690114 0.34963,-0.654563 4.18503,9.020437 8.52311,21.500004 21.27685,61.20823 42.70153,107.01242 52.98862,113.2853 8.75811,5.34054 17.23741,-0.69047 33.0094,-23.47837 3.47047,-5.01425 9.35759,-14.17932 13.0825,-20.36682 3.7249,-6.1875 6.82813,-11.25045 6.89607,-11.251 0.0679,-5.4e-4 -0.0295,7.98696 -0.21662,17.75 -0.64507,33.66485 3.86886,56.39367 12.56224,63.25416 5.82957,4.60048 18.55411,0.98018 34.42122,-9.79328 11.95078,-8.11436 25.00018,-19.59278 48.359,-42.53719 12.09872,-11.88408 22.13674,-21.62211 22.3067,-21.64006 0.16996,-0.018 0.0909,0.32024 -0.17563,0.75153 -0.26655,0.43129 -1.85275,9.09379 -3.5249,19.25 -7.46037,45.31248 -8.12674,79.65808 -1.73479,89.41342 3.03992,4.63951 6.19616,5.92336 14.48191,5.89078 21.11684,-0.083 56.96015,-13.35711 94.39439,-34.95766 3.1625,-1.82484 5.75,-2.94381 5.75,-2.48659 0,0.45721 -3.1746,7.49984 -7.05467,15.65027 -16.74357,35.17134 -22.94121,52.28702 -23.70171,65.45562 -0.6528,11.30369 1.66573,16.68747 9.28564,21.56187 15.2818,9.77565 49.74267,14.36532 86.47074,11.51662 23.56217,-1.82753 77.0634,-7.91234 85,-9.66723 4.02321,-0.88959 1.86869,0.59188 -20.5,14.09603 -11.55,6.97282 -26.625,16.44471 -33.5,21.04864 -14.75418,9.88032 -38.2699,27.49337 -38.72185,29.00229 -0.17433,0.58202 2.72927,2.10965 6.45244,3.39474 3.72318,1.28509 7.11665,2.64113 7.54104,3.01342 0.4244,0.37229 -0.37954,9.16809 -1.78654,19.54622 -2.82459,20.83437 -2.8362,23.82501 -0.0718,18.4874 5.0365,-9.72464 23.09003,-39.25592 24.277,-39.7114 1.22452,-0.46989 47.67654,17.06022 49.60757,18.72096 0.86447,0.74346 -0.903,5.54391 -2.95707,8.03143 -1.08086,1.30894 -0.75056,1.82207 2.19336,3.40747 1.90621,1.02657 3.46584,2.43669 3.46584,3.1336 0,1.2591 -9.00173,16.14678 -22.13665,36.61109 -3.77484,5.88123 -6.86335,11.1309 -6.86335,11.66593 0,0.53504 5.5125,3.10507 12.25,5.7112 14.48492,5.6029 34.91493,14.32111 36.05311,15.38515 0.44172,0.41294 -4.28328,1.52497 -10.5,2.47118 -20.58626,3.13333 -60.14952,10.51224 -61.55124,11.47988 -0.71886,0.49624 -37.69932,56.15809 -42.19163,63.50555 -1.36498,2.2325 -1.2025,2.58162 3.12808,6.72139 11.57617,11.0661 54.81168,56.98174 54.81168,58.2094 0,0.2785 -4.6125,-1.31712 -10.25,-3.54583 -36.80649,-14.55096 -79.92079,-26.52653 -103.63521,-28.78606 -29.41797,-2.80297 -43.57057,8.02383 -38.65893,29.57428 4.862,21.33271 19.08648,45.92455 51.94594,89.80622 6.95675,9.2903 12.45811,17.08198 12.22524,17.31485 C 839.21238,771.12095 816.84125,759.1748 790,744.20553 749.87141,721.82596 720.06595,710 703.79038,710 c -12.65122,0 -17.62471,5.11342 -20.91167,21.5 -2.9646,14.77948 0.15847,63.77639 6.74589,105.83421 0.84717,5.40882 1.36591,10.00861 1.15276,10.22176 -0.21315,0.21315 -5.98775,-6.90481 -12.83245,-15.8177 -28.33726,-36.89962 -45.5226,-57.29628 -62.33111,-73.97855 -12.98201,-12.8845 -21.50571,-19.51107 -31.56194,-24.53716 -6.13488,-3.0662 -8.5152,-3.72256 -13.5,-3.72256 -5.29276,0 -6.64574,0.42754 -10.78655,3.40853 -15.6104,11.23799 -33.12672,52.46787 -49.68831,116.95621 -2.73523,10.65061 -5.15314,19.54473 -5.37312,19.76471 -0.21998,0.21999 -2.55977,-7.81915 -5.19954,-17.86474 z m 20.67676,-89.79695 c 10.40089,-24.15223 22.60108,-41.26574 33.74042,-47.32853 13.49961,-7.34741 31.72807,-3.243 51.57848,11.61368 9.71519,7.27116 39.222,36.8395 50.95582,51.06208 5.36114,6.49825 9.92118,11.64135 10.13341,11.42911 0.21224,-0.21223 -0.27462,-6.87898 -1.08191,-14.81499 -4.15742,-40.86916 1.29754,-66.61277 16.25321,-76.7039 9.49571,-6.40711 25.32126,-6.64166 44.26887,-0.65611 10.616,3.3536 34.6116,13.61499 48.50834,20.74394 5.9917,3.07371 11.0673,5.41526 11.27911,5.20344 0.21182,-0.21182 -0.71762,-1.87718 -2.06542,-3.7008 -4.40994,-5.96681 -12.73292,-20.51987 -17.79034,-31.10714 -12.27336,-25.69316 -12.1195,-45.93226 0.44292,-58.26279 8.71246,-8.55163 21.4446,-12.42321 40.90444,-12.4382 14.74575,-0.0113 29.42702,2.72786 55.44155,10.34423 4.5375,1.32846 8.25,2.1182 8.25,1.75498 0,-0.36322 -3.0375,-3.67009 -6.75,-7.34861 l -6.75,-6.68821 -16.5,-4.90693 c -9.075,-2.69881 -18.4125,-5.43261 -20.75,-6.07511 -4.17922,-1.14873 -4.25,-1.24147 -4.25,-5.56902 0,-2.42047 -0.49218,-4.70503 -1.09373,-5.07681 -1.1504,-0.71099 -0.70546,-9.8105 1.21249,-24.79673 0.55289,-4.32006 0.80702,-8.05289 0.56474,-8.29517 -0.24228,-0.24228 -1.68633,1.71731 -3.20899,4.35466 -2.59713,4.49839 -18.4212,30.26782 -19.18445,31.2418 -0.1925,0.24565 -8.99901,-1.64655 -19.57003,-4.2049 -10.57102,-2.55834 -20.90492,-4.94642 -22.96423,-5.30684 -3.72468,-0.65188 -3.7409,-0.67586 -3.11295,-4.60287 0.55781,-3.48833 0.37616,-4.01429 -1.56137,-4.52096 -2.46435,-0.64445 -2.5134,1.71701 0.52166,-25.11711 0.88995,-7.86833 1.39812,-14.52602 1.12927,-14.79487 -0.26884,-0.26884 -2.74757,2.34388 -5.50827,5.80606 -6.22963,7.8125 -17.16115,18.35235 -23.55084,22.70702 -6.73322,4.58878 -20.15801,10.66537 -26.47252,11.98249 -7.42128,1.54798 -21.66983,1.35595 -28.19322,-0.37996 -11.46277,-3.05032 -23.86582,-11.19496 -30.0511,-19.73349 l -2.78047,-3.83833 -0.6578,7.77857 c -0.3618,4.27821 -0.81319,8.27831 -1.00311,8.88912 -0.21806,0.70135 -5.443,1.34929 -14.18019,1.75846 -7.60919,0.35635 -19.57239,0.92685 -26.58489,1.26778 L 577,574.25666 v -3.0117 c 0,-2.11982 -0.56371,-3.15911 -1.90354,-3.50949 -1.95303,-0.51072 -2.69865,-5.1084 -3.36273,-20.73547 L 571.5,541.5 560.0171,540.7829 c -6.3156,-0.3944 -11.79521,-0.3944 -12.17693,0 -0.38171,0.39441 -2.99628,7.77132 -5.81015,16.39314 l -5.11613,15.67605 -28.20695,-0.56111 c -15.51382,-0.30861 -28.32424,-0.65514 -28.46762,-0.77006 -0.14337,-0.11492 0.41913,-2.13571 1.25,-4.49066 C 483.38436,561.65915 483.4514,562 480.5,562 c -1.375,0 -2.5,-0.37669 -2.5,-0.83709 0,-0.4604 5.85,-16.69927 13,-36.08638 7.15,-19.38712 13,-35.41739 13,-35.62283 0,-0.20544 -3.0375,1.92981 -6.75,4.74501 -11.67186,8.8508 -23.40052,13.54773 -43.75,17.5204 l -4,0.78089 -0.67937,9.5 c -0.37365,5.225 -1.17621,18.05 -1.78345,28.5 -1.51044,25.99295 -1.06118,24.49835 -7.36664,24.50754 -2.84379,0.004 -14.62054,0.89543 -26.17054,1.98063 -11.55,1.08521 -22.9125,1.98181 -25.25,1.99247 L 384,579 l -0.11842,-4.75 c -0.0651,-2.6125 -0.0651,-5.0875 0,-5.5 0.18419,-1.16655 -0.49874,-1.02508 -17.44259,3.61331 -8.76644,2.39981 -16.95149,4.60768 -18.18899,4.90638 -1.99231,0.48087 -2.25,0.1609 -2.25,-2.79376 0,-2.69259 -0.43182,-3.39852 -2.23663,-3.65638 -2.02667,-0.28955 -2.4088,-1.35216 -4.0707,-11.31955 -1.00874,-6.05 -2.13975,-11.27674 -2.51337,-11.61497 -0.66695,-0.60379 -19.78004,2.36197 -20.56786,3.19149 -0.2212,0.23291 -1.3774,6.94848 -2.56933,14.92348 -1.19192,7.975 -2.39746,15.45143 -2.67897,16.61429 -0.49758,2.05543 -1.1308,2.12753 -22.74338,2.58977 l -22.23154,0.47548 -12.73635,10.16023 C 246.64687,601.4279 240.49872,606 239.9893,606 c -1.21716,0 -15.12176,-19.26178 -28.6705,-39.71671 -0.92467,-1.39601 -1.14184,2.77232 -1,19.19381 l 0.1812,20.9771 -13.5,4.1813 c -16.41627,5.08454 -34.31458,11.80823 -34.72702,13.04557 -0.1665,0.49949 4.31647,0.11989 9.96215,-0.84355 33.22485,-5.66986 54.72794,-2.02864 67.44839,11.42137 3.04477,3.21939 5.94643,7.63138 7.40963,11.26637 2.11849,5.26293 2.3938,7.46395 2.31084,18.47474 -0.1099,14.58915 -3.07367,29.32856 -9.51036,47.29694 -2.16574,6.04578 -3.80945,11.12057 -3.65271,11.27732 0.15675,0.15675 4.10417,-2.169 8.77204,-5.16833 27.01089,-17.35577 51.24895,-28.47743 68.67662,-31.51233 22.25386,-3.87534 37.06557,7.64343 41.82673,32.52781 1.82474,9.53701 1.85991,35.67987 0.0681,50.57859 -0.69456,5.775 -1.15595,10.64172 -1.02533,10.81494 0.13063,0.17321 3.92425,-4.23756 8.43027,-9.80173 C 373.68869,756.8013 394.53057,735.8582 404,728.80333 416.32619,719.62015 429.45934,714 438.59241,714 c 9.7041,0 21.87117,6.06928 29.43344,14.68222 10.15201,11.56251 22.96044,37.54947 31.94731,64.81778 1.81265,5.5 3.5343,10.41439 3.8259,10.92087 0.2916,0.50648 2.8888,-6.03303 5.77156,-14.53224 2.88275,-8.49921 7.65747,-21.0636 10.61048,-27.92087 z m -12.50528,-57.52058 c -3.82358,-29.82864 -4.30931,-49.79107 -1.79927,-73.94718 0.59867,-5.7615 0.70295,-5.38387 2.62345,9.5 1.55262,12.03283 1.98302,20.98037 1.9241,40 -0.0439,14.18496 -0.50497,25.53032 -1.09501,26.94718 -0.93087,2.23526 -1.07403,2.01877 -1.65327,-2.5 z M 622.34853,688.24311 C 613.58058,673.46063 607.74859,662.2018 602.27989,649.5 c -3.83116,-8.8984 -9.44354,-24.66969 -8.95339,-25.15983 0.63543,-0.63544 14.24993,21.46968 19.88627,32.28826 3.18878,6.12064 7.55389,15.79564 9.70025,21.5 2.14637,5.70436 5.04883,13.40907 6.44992,17.12157 1.40109,3.7125 2.2301,6.7469 1.84225,6.74311 -0.38786,-0.004 -4.37335,-6.1913 -8.85666,-13.75 z M 380.09343,685.75 c 6.47456,-16.83251 15.04553,-33.41225 24.85097,-48.07192 5.0848,-7.60205 9.46186,-13.60515 9.7268,-13.34021 0.60302,0.60302 -6.64995,18.68873 -10.81668,26.97204 C 397.66102,663.62235 377.87542,696 376.54493,696 c -0.21677,0 1.38005,-4.6125 3.5485,-10.25 z m 300.90419,-32.29951 c -7.97369,-6.35223 -17.78918,-14.78973 -21.81221,-18.75 C 652.54397,628.16264 636,608.75502 636,607.50184 c 0,-1.22308 21.40623,16.87033 31.34671,26.49551 9.20254,8.91062 29.49255,31.00265 28.47382,31.00265 -0.17891,0 -6.84922,-5.19728 -14.82291,-11.54951 z M 284.56446,657 c 2.62219,-3.69511 18.7943,-23.04976 23.61068,-28.25707 5.75793,-6.2253 31.07324,-28.82788 31.64612,-28.25501 0.4646,0.46461 -8.43009,11.95524 -17.42621,22.51208 -7.78717,9.13816 -26.2609,26.17418 -36.89505,34.02371 -1.77135,1.30751 -1.87831,1.3048 -0.93554,-0.0237 z M 184.75,595.97128 c 14.18092,-4.35271 14.25,-4.38841 14.25,-7.36397 0,-5.24487 -3.0676,-54.82508 -3.85813,-62.35731 -0.41851,-3.9875 -0.50913,-7.22596 -0.20139,-7.19659 0.30773,0.0294 3.03452,3.82179 6.05952,8.42759 23.12397,35.20802 37.68066,56.46506 38.68387,56.4898 0.65114,0.0161 6.34328,-4.86857 12.64922,-10.85473 6.30593,-5.98616 12.88417,-11.72205 14.61831,-12.74643 1.85187,-1.09393 2.99067,-2.48317 2.75966,-3.36655 -0.21633,-0.82723 -8.41814,-12.07883 -18.22625,-25.00357 -9.80812,-12.92474 -20.54229,-27.08071 -23.85372,-31.45772 l -6.02079,-7.9582 5.76202,-10.85196 c 3.16911,-5.96857 14.24451,-24.99636 24.61201,-42.28397 10.36751,-17.28761 18.54978,-31.60848 18.18284,-31.82414 -0.36694,-0.21567 -7.19217,-2.49671 -15.16717,-5.06898 -7.975,-2.57228 -15.01378,-4.89561 -15.64173,-5.16295 -0.66583,-0.28348 -5.20036,6.93215 -10.87887,17.31116 -12.7544,23.3121 -28.16913,50.69391 -31.58156,56.0996 l -2.71593,4.30236 -0.53692,-2.80236 c -0.29531,-1.5413 -0.8359,-16.5563 -1.20133,-33.36668 l -0.66441,-30.56432 -12.13962,3.66043 c -6.6768,2.01323 -14.54344,4.27534 -17.48143,5.0269 l -5.3418,1.36646 0.5822,23.03743 c 0.3202,12.67058 0.81519,34.96242 1.09996,49.53742 0.86112,44.073 2.56465,103.23632 3.10069,107.68659 l 0.50428,4.18659 4.19823,-1.264 c 2.30903,-0.69519 10.61074,-3.23225 18.44824,-5.6379 z m 675.67091,-10.252 C 872.62056,566.72357 895.05162,531.90892 905.9853,515 c 6.22374,-9.625 15.45651,-24.025 20.51726,-32 5.06076,-7.975 12.19299,-19.1862 15.84941,-24.91377 C 946.00839,452.35865 949,447.14972 949,446.51082 c 0,-0.89731 -17.81345,-8.91541 -31.08599,-13.99227 -1.64097,-0.62769 -15.59137,21.01597 -41.9694,65.1144 -6.29453,10.52312 -11.58454,19.00819 -11.75557,18.85571 -0.17102,-0.15248 0.82075,-7.18731 2.20394,-15.63295 1.38319,-8.44564 3.21314,-20.08071 4.06655,-25.85571 4.51783,-30.57203 6.53507,-43.18225 7.03797,-43.99595 0.84057,-1.36008 -1.85716,-2.47014 -14.75826,-6.07273 -13.6127,-3.8013 -11.47504,-4.74792 -19.3499,8.56868 -2.60196,4.4 -10.88254,17.9 -18.40127,30 -7.51873,12.1 -15.60201,25.27738 -17.96285,29.28306 -2.36084,4.00568 -4.41144,7.15568 -4.55688,7 -0.14545,-0.15568 3.00586,-20.08306 7.00292,-44.28306 3.99705,-24.2 7.52849,-45.8 7.84763,-48 l 0.58025,-4 -16.98404,-4.26149 c -9.34123,-2.34382 -17.50004,-4.36882 -18.1307,-4.5 -0.75224,-0.15647 -2.11971,6.12494 -3.97554,18.26149 -1.55589,10.175 -6.23358,40.775 -10.39486,68 -4.16128,27.225 -8.84124,57.825 -10.39991,68 -1.55868,10.175 -2.70253,18.63446 -2.5419,18.79879 0.60955,0.6236 27.12613,7.15193 29.14723,7.17598 2.06125,0.0245 7.97524,-8.11515 23.59496,-32.47477 2.46867,-3.85 8.98572,-13.975 14.48232,-22.5 5.4966,-8.525 10.77164,-17.00432 11.7223,-18.84293 0.95066,-1.83861 1.9668,-3.10461 2.25808,-2.81332 0.29128,0.29128 -0.39903,6.2956 -1.53404,13.34293 -3.5227,21.87266 -10.26781,71.42737 -9.9475,73.08195 0.2064,1.0662 4.65264,2.93539 13.80446,5.80335 7.425,2.32682 13.95,4.26118 14.5,4.29858 0.55,0.0374 3.66441,-4.08068 6.92091,-9.15128 z M 301.39806,556.75 c 0.93698,-5.6375 2.19072,-13.21991 2.78608,-16.84981 l 1.08248,-6.59981 18.11669,-2.585 c 9.96418,-1.42175 18.86354,-2.87188 19.77635,-3.22251 1.97881,-0.76011 1.86054,-1.11317 5.45894,16.29646 2.73664,13.24027 2.75625,13.28724 5.31409,12.72181 1.41202,-0.31213 9.09231,-2.54371 17.06731,-4.95905 l 14.5,-4.39153 -0.17659,-5.83028 C 385.22629,538.12363 383.52307,526.5 381.53848,515.5 c -2.8537,-15.81719 -23.10043,-117.61167 -27.79602,-139.75 -0.71709,-3.38089 -1.49149,-4.75 -2.68671,-4.75 -0.92357,0 -11.10144,1.57465 -22.61748,3.49921 -11.51605,1.92457 -22.13828,3.49957 -23.60495,3.5 -2.52931,7.5e-4 -2.77263,0.45204 -4.72314,8.76015 -1.13105,4.81764 -2.95032,13.03014 -4.04283,18.25 -1.09251,5.21985 -3.98793,18.26564 -6.43428,28.99064 -10.15708,44.52952 -12.76518,56.03955 -15.06852,66.5 -1.33218,6.05 -3.89994,17.49105 -5.70613,25.42455 l -3.28399,14.42454 4.21279,7.82716 c 2.31703,4.30494 4.21278,8.19534 4.21278,8.64535 0,0.45 -1.35422,2.33501 -3.00938,4.18891 -1.65516,1.8539 -2.66766,3.71024 -2.25,4.1252 0.84058,0.83515 8.05928,1.38843 21.85661,1.67521 L 299.69446,567 Z m 11.79411,-69 C 323.48,433.13256 326.83946,417 327.92523,417 c 0.32411,0 1.37972,5.58533 2.3458,12.41184 0.96608,6.82652 3.99359,24.68323 6.72781,39.68159 2.73422,14.99836 4.86553,27.35835 4.73624,27.46665 C 341.41066,496.8318 312.06871,503 311.10053,503 c -0.42948,0 0.51176,-6.8625 2.09164,-15.25 z m 17.01789,-1.77211 c -0.53786,-3.66469 -1.70788,-2.85965 -2.7035,1.86017 -0.64922,3.07765 -0.55332,3.25733 1.22928,2.30332 1.46412,-0.78358 1.82196,-1.7942 1.47422,-4.16349 z m 88.0115,71.49472 C 426.31842,556.66268 433.37834,556 433.91029,556 c 1.28634,0 1.78055,-4.65901 3.07621,-29 0.60017,-11.275 1.36087,-23.3125 1.69045,-26.75 l 0.59924,-6.25 h 5.20194 c 5.5162,0 17.57725,-2.75642 26.24303,-5.99755 13.20064,-4.93725 25.62127,-13.90069 34.42251,-24.84127 6.92166,-8.60412 10.52664,-15.3778 14.45529,-27.16118 2.57051,-7.70985 2.83447,-9.80142 2.83954,-22.5 0.005,-13.11242 -0.17577,-14.44379 -2.85489,-21 -7.13192,-17.45289 -21.21378,-29.39235 -40.39867,-34.25245 -5.00253,-1.26729 -10.58586,-1.66254 -22.18494,-1.57049 -16.15162,0.12818 -28.08106,1.81127 -44.75,6.31366 -7.39585,1.99767 -8.25,2.47459 -8.25,4.60646 0,3.59891 -3.87629,69.03503 -4.49632,75.90282 -0.29792,3.3 -1.42587,19.95 -2.50656,37 -1.08068,17.05 -2.64713,41.32455 -3.481,53.94345 C 392.68225,547.06234 392,557.99719 392,558.7431 c 0,1.05128 1.29285,1.22647 5.75,0.77917 3.1625,-0.31737 12.3747,-1.23972 20.47156,-2.04966 z M 442.9896,455.25 c -0.0157,-5.6524 3.08107,-54.40142 3.62799,-57.11168 0.47026,-2.33041 0.61162,-2.35621 10.67949,-1.94911 10.85553,0.43896 14.71952,1.71617 19.92619,6.58643 6.37032,5.95874 7.52273,20.54654 2.49135,31.53654 -4.82783,10.54536 -13.93472,18.11886 -27.32846,22.72699 -8.38784,2.88584 -9.38412,2.69614 -9.39656,-1.78917 z m 21.16226,-15.52592 c 4.86646,-5.01455 6.51399,-8.06753 7.93877,-14.71107 1.35965,-6.33984 -0.27698,-9.41536 -5.83117,-10.95782 -7.87727,-2.18759 -7.92567,-2.14172 -8.64695,8.19481 -0.355,5.0875 -0.92026,12.55896 -1.25614,16.60324 -0.60978,7.34229 -0.60742,7.35148 1.58982,6.17556 1.21029,-0.64773 4.00284,-3.03485 6.20567,-5.30472 z m 228.14595,118.69875 c 33.69643,-8.73162 57.33831,-39.12687 67.91469,-87.3147 2.82485,-12.87054 3.17943,-42.39933 0.61971,-51.60813 -4.21957,-15.18022 -8.50036,-23.10956 -16.98497,-31.46138 -9.53025,-9.38112 -21.42014,-13.68652 -35.23359,-12.75832 -16.23432,1.09088 -28.21044,6.89048 -41.7535,20.2197 -13.60986,13.39498 -23.72004,30.63336 -31.03978,52.92445 -10.56004,32.15892 -10.31161,64.52722 0.65544,85.39757 6.62216,12.60199 15.11199,20.26459 27.01113,24.37921 6.45248,2.23122 20.63455,2.3403 28.81087,0.2216 z M 676.5,517.13944 c -4.13854,-2.55635 -6.04649,-4.89447 -8.71181,-10.67598 -2.0286,-4.40036 -2.28689,-6.49502 -2.27673,-18.46346 0.009,-10.95601 0.44658,-15.10177 2.32045,-22 6.12498,-22.54771 19.24877,-40.80307 33.12332,-46.07499 6.31807,-2.40067 9.41137,-2.39565 14.74093,0.024 7.236,3.28511 11.39475,14.41322 11.39475,30.49044 0,10.13146 -0.87504,15.11772 -4.74888,27.06059 -6.09994,18.80585 -17.26605,34.84188 -27.49196,39.48213 -5.69151,2.58266 -14.30409,2.65649 -18.35007,0.15731 z m 14.4024,-9.08965 c 8.41042,-4.29067 18.34408,-19.27348 23.23816,-35.04979 1.89109,-6.09603 2.3297,-9.77838 2.34303,-19.67108 0.0146,-10.81202 -0.21796,-12.48696 -2.08246,-15 -4.5589,-6.14462 -12.40025,-3.41094 -20.05932,6.99316 -14.86215,20.1888 -22.41337,56.6114 -13.09062,63.14131 2.89818,2.02996 5.04148,1.93811 9.65121,-0.4136 z M 614,553.37378 l 6.5,-0.612 -0.25714,-5.63089 C 620.10143,544.0339 619.30988,524.4 618.48385,503.5 c -2.99373,-75.74661 -5.41895,-131.76843 -5.71726,-132.06674 -0.16763,-0.16763 -11.26142,-0.0374 -24.65288,0.28933 l -24.34809,0.59412 -1.26571,3.09164 C 550.73656,404.14181 544.29069,419.69383 541.94559,425 530.27184,451.41373 492.74707,543.17526 491.36122,548.69693 L 490.78318,551 h 19.40181 19.40181 l 4.40036,-13.57385 c 2.4202,-7.46562 4.89854,-14.25516 5.50743,-15.08786 0.95701,-1.30879 3.89442,-1.41585 21.67102,-0.78988 l 20.56396,0.72413 0.63521,7.51461 C 582.71415,533.92018 583,541.05886 583,545.65088 V 554 l 12.25,-0.007 c 6.7375,-0.004 15.175,-0.28251 18.75,-0.61911 z m -59,-63.25977 c 0,-0.48729 5.4,-17.1328 12,-36.99003 6.6,-19.85723 12,-37.08353 12,-38.28068 0,-1.19715 0.28096,-1.89567 0.62437,-1.55227 0.63546,0.63546 3.26916,55.83501 3.33791,69.95897 L 583,491 h -14 c -7.7,0 -14,-0.39869 -14,-0.88599 z M 572.96959,479.75 c -0.0237,-4.09317 -0.2576,-4.85975 -1.06147,-3.47895 -0.56709,0.97408 -1.18966,2.54908 -1.3835,3.5 -0.19384,0.95092 -0.66432,2.51645 -1.04552,3.47895 -0.52763,1.33225 -0.19011,1.75 1.41391,1.75 1.87896,0 2.1037,-0.56818 2.07658,-5.25 z m -309.52358,24.5 c 8.69852,-37.87479 18.57958,-82.55776 18.31492,-82.82158 -0.14351,-0.14306 -5.57796,9.03952 -12.07654,20.40573 -6.49859,11.36622 -16.28609,28.31219 -21.75,37.65773 C 242.47047,488.83741 238,496.82211 238,497.23566 c 0,0.41355 4.10066,6.24992 9.11259,12.96973 5.01192,6.7198 9.33506,12.7976 9.60698,13.50622 0.27193,0.70861 0.82437,1.28839 1.22765,1.28839 0.40328,0 2.87774,-9.3375 5.49879,-20.75 z M 927.25,518.0574 c 3.26626,-1.6372 3.48297,-2.63246 0.72998,-3.35239 -1.51261,-0.39555 -2.41266,0.23103 -3.5831,2.49441 -0.85969,1.66245 -1.18818,2.84574 -0.72998,2.62953 0.45821,-0.21622 2.0706,-1.01342 3.5831,-1.77155 z M 148.63883,512.25 c -0.27277,-0.9625 -0.80163,-6.3625 -1.17525,-12 -0.37363,-5.6375 -0.96828,-10.2265 -1.32145,-10.19777 -0.35317,0.0287 -6.68624,3.11034 -14.07348,6.84803 l -13.43136,6.7958 4.43136,1.65522 c 2.43724,0.91038 8.48135,3.18392 13.43135,5.05233 10.57032,3.98983 12.8443,4.33572 12.13883,1.84639 z m 240.82079,-70.35575 c 1.32814,-17.81684 3.19989,-43.98644 4.15946,-58.15468 l 1.74468,-25.76043 3.62959,-0.97735 c 24.30197,-6.54384 42.94814,-9.32667 62.50665,-9.32873 19.26115,-0.002 27.59926,1.61946 38.81395,7.54805 9.48505,5.01423 21.5554,17.47393 26.06012,26.90073 4.03248,8.43856 7.62593,21.15153 7.62593,26.97911 0,8.96971 2.36851,4.72073 16.5,-29.60017 l 7,-17.00078 32.93286,-0.73381 c 18.11307,-0.40359 33.02549,-0.62859 33.13871,-0.5 0.11322,0.1286 1.02228,17.89631 2.02013,39.48381 0.99786,21.5875 2.17294,39.25 2.61129,39.25 0.43836,0 0.79701,-0.81317 0.79701,-1.80704 0,-3.37865 12.79086,-27.65945 18.83361,-35.75171 18.03315,-24.14943 41.16003,-37.42211 65.16639,-37.39944 9.50251,0.009 14.7231,1.21753 23.53373,5.44801 12.48453,5.99453 22.40336,16.98497 28.97782,32.1085 3.73504,8.59188 3.47007,8.97099 6.00984,-8.59832 0.91433,-6.325 1.7445,-11.58593 1.84481,-11.69097 0.10032,-0.10503 5.57146,1.36453 12.1581,3.26569 6.58663,1.90116 19.0632,5.31107 27.7257,7.57758 9.05221,2.36848 15.75,4.6203 15.75,5.29521 0,0.64586 -0.88048,7.50415 -1.95662,15.24063 -1.07614,7.73649 -2.44258,18.05909 -3.03653,22.9391 -0.59395,4.88002 -1.33668,9.71661 -1.65051,10.74799 -1.11423,3.66178 1.49802,0.57695 5.19441,-6.13413 2.0421,-3.70761 7.32323,-12.50002 11.73583,-19.53871 6.12668,-9.77287 8.39996,-12.64807 9.61817,-12.16492 0.87739,0.34798 3.04642,0.87644 4.82008,1.17436 2.93186,0.49247 4.5217,-0.49804 17.5,-10.90298 16.07928,-12.89106 23.76918,-18.84195 26.24364,-20.30885 1.14924,-0.68128 -8.29778,-1 -29.6408,-1 -20.72378,0 -34.09021,-0.43724 -39.4892,-1.29178 -31.15651,-4.93134 -49.60346,-13.89273 -55.68613,-27.05189 -1.80983,-3.91536 -2.15146,-6.48635 -2.14682,-16.15633 0.006,-12.68185 2.26542,-23.02106 8.85011,-40.5 1.86477,-4.95 3.2951,-9.11502 3.1785,-9.25559 -0.11659,-0.14058 -5.02534,1.76102 -10.90833,4.22577 -27.7767,11.63741 -50.97357,15.94277 -65.31941,12.12334 -11.03832,-2.93884 -18.84418,-11.95008 -22.00019,-25.39748 -2.24333,-9.55858 -2.26663,-37.11255 -0.0427,-50.44604 0.80271,-4.8125 1.24093,-8.75 0.97383,-8.75 -0.2671,0 -6.02515,5.35455 -12.79566,11.89901 -24.01378,23.21203 -47.70962,36.06605 -64.29818,34.87915 -16.26828,-1.16399 -24.82225,-12.4098 -30.05409,-39.51174 l -1.58944,-8.23359 -4.77515,5.98021 c -11.91038,14.9161 -25.21217,20.12033 -37.05852,14.49886 -10.08892,-4.7875 -21.03831,-19.56451 -33.04086,-44.59108 C 494.22232,175.48449 483,147.56575 483,144.58463 483,143.71308 482.66163,143 482.24806,143 c -0.41356,0 -2.70936,7.7625 -5.10178,17.25 -9.9081,39.29221 -21.01755,66.97718 -31.46282,78.40597 -7.20277,7.88098 -11.36161,9.8055 -21.23532,9.82672 -7.28564,0.0157 -8.76333,-0.33431 -15.52827,-3.67773 -8.68462,-4.29217 -18.18272,-11.261 -28.1486,-20.65284 -7.72079,-7.27606 -25.12864,-27.02533 -27.6736,-31.3958 -0.87872,-1.50902 -1.93517,-2.74652 -2.34767,-2.75 -0.4125,-0.003 -0.75154,3.48118 -0.75342,7.74368 -0.008,19.10372 -4.63929,49.55348 -9.67059,63.58792 -14.8015,41.28771 -49.40077,51.35692 -109.27968,31.80298 -6.84953,-2.23677 -12.608,-3.91254 -12.7966,-3.72394 -0.1886,0.1886 2.72599,5.69956 6.47687,12.24658 14.90921,26.02349 19.66765,46.80273 13.49057,58.91082 -4.52089,8.86166 -15.79609,16.26997 -31.92056,20.97322 C 196.88022,384.29418 171.06909,389 165.42053,389 163.53924,389 162,389.34411 162,389.7647 162,390.74284 177.52414,402 178.87305,402 c 0.55723,0 5.04264,-1.35 9.96756,-3 C 200.81164,394.98934 201,395.01166 201,400.44098 c 0,2.44254 0.39955,4.68792 0.88789,4.98973 0.48834,0.30181 1.21963,6.51587 1.6251,13.80902 0.40546,7.29315 1.02978,14.05165 1.38737,15.01889 0.473,1.27941 2.52353,-1.71798 7.52515,-11 13.20201,-24.50029 20.7,-37.25844 21.88279,-37.23451 0.65544,0.0133 11.7667,3.32822 24.6917,7.36656 l 23.5,7.34245 -0.1534,3.18816 c -0.11752,2.44246 0.22415,3.11545 1.46077,2.8773 2.06298,-0.39729 3.24339,-3.96926 7.20369,-21.79858 1.77142,-7.975 3.2987,-14.59259 3.39394,-14.70575 0.0952,-0.11316 8.48058,-1.57831 18.63408,-3.25587 10.15351,-1.67757 22.96092,-3.92073 28.46092,-4.98481 5.5,-1.06408 11.88618,-2.22155 14.19152,-2.57215 l 4.19151,-0.63745 0.68765,6.07801 c 0.6262,5.53489 0.89951,6.07802 3.05849,6.07802 1.30395,0 2.37083,0.20687 2.37083,0.45972 0,2.72777 20.22938,103.64424 20.68487,103.18874 0.19798,-0.19798 1.44662,-14.93738 2.77475,-32.75421 z M 605.597,329.75 c 2.53939,-5.0875 7.02714,-12.85 9.97277,-17.25 5.506,-8.2245 13.25445,-17.56339 11.61576,-14 -0.50585,1.1 -1.73112,3.8 -2.72282,6 -4.76647,10.57404 -20.48091,34.41916 -22.72275,34.47953 -0.41802,0.0113 1.31765,-4.14203 3.85704,-9.22953 z m -205.8178,1.5 c -8.70664,-10.79121 -18.0789,-24.90664 -24.26886,-36.55101 -3.15791,-5.94056 -5.5732,-10.96947 -5.36731,-11.17535 0.54928,-0.54928 10.69957,11.76203 17.21837,20.88422 C 392.27195,311.2795 406.8186,338 405.64898,338 c -0.23304,0 -2.87444,-3.0375 -5.86978,-6.75 z m 102.83062,-7.0723 c -1.85652,-3.00392 -7.6444,-19.98218 -9.46771,-27.77274 -1.99718,-8.53348 -5.41088,-33.46953 -4.68173,-34.19868 0.57452,-0.57451 8.40598,23.90369 10.4919,32.79372 2.03044,8.65362 5.18839,29.19266 4.58175,29.79931 -0.18357,0.18356 -0.59946,-0.0962 -0.92421,-0.62161 z M 212,856.43809 c 0,-1.65556 16.12701,-29.3104 24.5055,-42.0224 18.05027,-27.3862 42.93151,-58.32227 56.57976,-70.34839 7.42882,-6.54588 7.34519,-5.54657 -0.83121,9.9327 -14.32436,27.11836 -36.14641,57.219 -62.01132,85.53645 C 220.22938,850.49927 212,858.12368 212,856.43809 Z m 584.23063,-19.35417 c -20.10282,-18.7304 -39.42254,-40.03753 -55.11662,-60.78646 -6.61417,-8.7445 -19.2765,-28.4683 -18.66727,-29.07754 0.54394,-0.54393 19.04018,15.0394 26.88529,22.65121 7.86531,7.63143 26.10138,28.50048 36.37668,41.62887 7.77769,9.93728 26.6993,38.42533 25.99181,39.13282 -0.24625,0.24624 -7.20769,-5.85076 -15.46989,-13.5489 z M 592.30236,823.98821 c -1.2087,-0.48676 -2.8962,-2.23589 -3.75,-3.88696 -5.19287,-10.0419 3.86327,-20.87921 13.93204,-16.67221 4.92884,2.05939 6.88481,5.603 6.24176,11.30811 -0.92487,8.20538 -8.46878,12.45466 -16.4238,9.25106 z M 916,761.66016 C 891.19722,747.19841 857.03084,720.3691 830.92705,694.85624 821.68771,685.82607 807,669.59322 807,668.41209 c 0,-1.50969 28.22493,17.41237 44,29.49771 17.04474,13.05804 33.00539,27.28598 48.5,43.23477 17.52564,18.03935 20.94666,21.75376 20.43502,22.18752 -0.23926,0.20285 -2.01002,-0.54952 -3.93502,-1.67193 z M 160.98635,731.75 c -0.008,-3.9875 -0.26576,-8.18891 -0.57387,-9.33647 -0.30812,-1.14757 -3.45198,-3.9877 -6.98635,-6.31142 C 149.89176,713.7784 147,711.51055 147,711.06246 c 0,-0.4481 3.09314,-2.44012 6.87364,-4.42672 l 6.87363,-3.61199 1.75042,-9.01188 c 0.96274,-4.95653 2.0321,-8.98901 2.37637,-8.96108 0.34427,0.0279 3.01613,3.40293 5.93747,7.5 3.04862,4.27558 6.03087,7.44181 7,7.43185 0.92866,-0.01 4.8383,-0.68455 8.6881,-1.5 3.84979,-0.81545 7.10901,-1.48264 7.24271,-1.48264 0.13369,0 -1.6646,3.84652 -3.99621,8.54783 l -4.23929,8.54783 4.20226,8.16316 c 2.31124,4.48974 4.08835,8.27706 3.94913,8.41628 -0.13921,0.13922 -3.83177,-0.62541 -8.20567,-1.69918 -4.37391,-1.07377 -8.55401,-1.95762 -9.28911,-1.96411 -0.73511,-0.006 -4.14833,2.68819 -7.58493,5.98819 -3.43661,3.3 -6.54766,6 -6.91345,6 -0.36579,0 -0.67121,-3.2625 -0.67872,-7.25 z M 32.01053,613.12986 c 0.01979,-1.18361 22.46948,-13.03562 34.229573,-18.07103 20.794013,-8.90354 50.451487,-18.09836 63.346367,-19.63951 l 4.91353,-0.58725 -4.5,2.70897 c -18.99588,11.43541 -50.774918,24.84943 -73,30.8135 -11.348507,3.04536 -25.004174,5.65486 -24.98947,4.77532 z M 855,352.29932 c 0,-1.60613 1.74188,-10.51592 3.38205,-17.29932 0.68329,-2.82594 0.0652,-3.66033 -9.01399,-12.16864 l -6.04899,-5.66864 3.09047,-0.52848 c 1.69975,-0.29067 5.65975,-0.82686 8.79999,-1.19153 3.14025,-0.36468 6.36472,-1.17597 7.1655,-1.80288 0.80078,-0.62691 3.01201,-4.94584 4.91384,-9.59762 1.90183,-4.65179 3.90939,-8.6083 4.46125,-8.79225 0.55185,-0.18395 2.21749,2.72205 3.70141,6.45779 4.50061,11.33022 4.02375,10.96738 15.49265,11.78825 l 10.04412,0.7189 -6.60363,7.13253 -6.60362,7.13253 0.60807,5.17379 c 0.33445,2.84559 1.31472,7.93207 2.17839,11.3033 0.86367,3.37123 1.4268,6.52271 1.2514,7.00329 -0.1754,0.48058 -3.89703,-1.33889 -8.27029,-4.04328 C 879.17536,345.21268 874.79246,343 873.80885,343 c -0.98362,0 -5.0555,2.1375 -9.04862,4.75 -3.99313,2.6125 -7.82273,5.10986 -8.51023,5.54969 -0.83322,0.53306 -1.25,0.19951 -1.25,-1.00037 z M 179.5,312.86954 c -34.13004,-18.48769 -68.75386,-43.16058 -93,-66.2717 -9.797032,-9.33841 -9.380435,-9.57679 4.521336,-2.58711 20.343524,10.22852 50.658104,30.01141 71.147604,46.42997 17.89199,14.33714 35.21533,30.58413 32.58106,30.5567 -0.1375,-0.001 -7,-3.65897 -15.25,-8.12786 z M 834,271.47266 c 0,-0.65757 9.97093,-12.14959 22.28801,-25.68809 8.69994,-9.56266 27.91013,-27.21243 39.95643,-36.71081 8.60513,-6.78506 33.01619,-23.14647 33.62538,-22.53727 0.75695,0.75695 -23.18522,26.57333 -36.71329,39.58722 -15.41525,14.82935 -29.96468,26.81699 -44.65653,36.79365 -10.70881,7.27193 -14.5,9.50882 -14.5,8.5553 z M 270.93353,262.13151 C 244.5884,246.75281 213.54568,221.54606 193.54503,199.29189 187.74526,192.83865 183,187.23595 183,186.84145 c 0,-0.78223 9.9847,5.09628 19.5,11.48067 19.03111,12.76911 47.45559,36.5268 62,51.82071 13.14049,13.81764 14.93697,15.858 13.94617,15.83948 -0.52039,-0.01 -3.90108,-1.74259 -7.51264,-3.8508 z M 743,252.45574 c 0,-1.10457 19.86416,-28.17074 30.05787,-40.95574 23.88565,-29.95749 49.39328,-58.14638 67.92339,-75.06325 7.41469,-6.76916 13.62766,-12.16116 13.80659,-11.98223 0.40754,0.40753 -6.19988,11.24226 -14.05398,23.04548 -24.01377,36.08813 -61.63632,77.86754 -90.23387,100.20369 -5.97623,4.66775 -7.5,5.63322 -7.5,4.75205 z M 292.90626,233.25 C 282.51456,222.61776 276.70885,215.74348 266.51393,202 257.71563,190.13926 242.58436,167.47467 235.46974,155.5 229.97972,146.25971 218,124.11024 218,123.19996 c 0,-1.11865 9.04797,8.14806 16.89167,17.30004 17.99298,20.99409 39.21626,50.08717 51.10472,70.05484 8.8766,14.90899 17.41825,31.44516 16.2428,31.44516 -0.42949,0 -4.62931,-3.9375 -9.33293,-8.75 z m 320.50609,-27.59767 c 1.32416,-21.6522 6.91283,-46.68831 15.11518,-67.71296 C 632.6232,127.44117 645.56116,100 646.41519,100 c 1.29962,0 -3.96888,30.13993 -8.56518,48.99958 -5.47066,22.44729 -19.79725,61.88759 -24.15612,66.50042 -0.59433,0.62896 -0.6988,-3.02487 -0.28154,-9.84767 z"
         id="path1059" />
    </g>
  </g>
</svg>
